<?xml version="1.0" encoding="UTF-8"?>
<svg id="Layer_1" data-name="Layer 1" xmlns="http://www.w3.org/2000/svg" viewBox="0 0 2948.03 396.85">
  <defs>
    <style>
      .cls-1 {
        fill: #5fbf83;
      }
    </style>
  </defs>
  <path class="cls-1" d="M219.62,66.04l3.11,62.16h-4.27c-24.86-37.69-42.73-51.29-66.82-51.29s-39.24,16.32-39.24,38.85c0,59.44,115.78,50.89,115.78,137.54,0,48.95-41.57,85.08-97.52,85.08-19.81,0-46.24-4.66-67.22-10.88l-6.6-81.59h5.44c21.37,41.19,40.02,71.88,71.1,71.88,25.65,0,46.23-20.98,46.23-47.79,0-61-113.83-49.73-113.83-135.59,0-47.79,36.91-76.93,88.19-76.93,19.03,0,41.57,3.11,65.66,8.55Z"/>
  <path class="cls-1" d="M302.77,332.56v-5.44l35.74-18.26V81.58h-46.62l-41.96,45.46-4.66-1.55,11.65-62.55h220.29l10.49,63.33-4.66,2.33-41.96-47.01h-47.78v227.28l35.74,18.26v5.44h-126.27Z"/>
  <path class="cls-1" d="M771.71,62.93v5.05l-34.97,20.2v148.02c0,65.66-39.24,102.57-101.79,102.57-52.84,0-91.69-29.92-106.46-78.09V87.8l-34.19-19.81v-5.05h122.38v5.05l-33.8,19.42v148.03c0,45.07,21.76,69.93,62.16,69.93,43.9,0,69.16-31.86,69.16-74.98V87.8l-33.8-19.81v-5.05h91.3Z"/>
  <path class="cls-1" d="M789.97,332.56v-4.66l30.7-18.65V87.02l-28.75-19.04v-5.05h112.28c93.63,0,141.42,58.28,141.42,129.77,0,84.7-66.05,139.87-153.85,139.87h-101.79ZM985.01,198.14c0-73.43-38.85-120.05-108.01-120.05h-2.33v236.99c1.94.39,3.5.39,4.66.39,65.27,0,105.68-47.78,105.68-117.33Z"/>
  <path class="cls-1" d="M1189.37,62.93v5.05l-32.63,19.81v221.07l32.63,18.26v5.44h-120.06v-5.44l33.03-20.2V87.02l-32.24-19.04v-5.05h119.27Z"/>
  <path class="cls-1" d="M1213.46,204.74c0-94.8,82.37-147.25,146.08-147.25,74.21,0,132.49,60.61,132.49,137.15,0,80.42-61.78,144.14-144.14,144.14s-134.43-55.95-134.43-134.04ZM1384.41,318.19c29.53-25.25,47.01-64.88,47.01-112.67,0-65.27-36.91-121.99-97.51-121.99-10.88,0-22.54,1.94-32.64,6.22-17.09,21.76-27.97,57.5-27.97,94.8,0,71.1,44.68,133.65,108.01,133.65h3.11Z"/>
  <path class="cls-1" d="M1745.34,181.82c47.01,9.32,76.54,36.52,76.54,77.32,0,45.07-36.91,73.43-99.46,73.43h-114.23v-5.44l29.92-17.87V87.41l-29.92-19.04v-5.44h113.06c54,0,85.08,21.76,85.08,59.83,0,26.03-14.38,39.63-38.08,49.34l-22.92,9.71ZM1692.5,77.31v101.02c4.66-.39,8.55-.39,12.05-.39,10.49,0,20.59.78,29.91,1.94,13.6-13.6,21.76-30.3,21.76-48.95,0-31.08-23.31-53.62-61-53.62h-2.72ZM1765.15,259.13c0-36.52-22.92-54.39-61.38-54.39-2.72,0-6.22,0-11.27.39v110.34c3.5.39,5.05.39,7.38.39,42.74,0,65.27-20.59,65.27-56.72Z"/>
  <path class="cls-1" d="M1852.18,204.74c0-94.8,82.37-147.25,146.08-147.25,74.21,0,132.49,60.61,132.49,137.15,0,80.42-61.78,144.14-144.14,144.14s-134.43-55.95-134.43-134.04ZM2023.13,318.19c29.53-25.25,47.01-64.88,47.01-112.67,0-65.27-36.91-121.99-97.51-121.99-10.88,0-22.54,1.94-32.64,6.22-17.09,21.76-27.97,57.5-27.97,94.8,0,71.1,44.68,133.65,108.01,133.65h3.11Z"/>
  <path class="cls-1" d="M2318.8,66.04l3.11,62.16h-4.27c-24.86-37.69-42.74-51.29-66.82-51.29s-39.24,16.32-39.24,38.85c0,59.44,115.78,50.89,115.78,137.54,0,48.95-41.57,85.08-97.52,85.08-19.81,0-46.23-4.66-67.21-10.88l-6.6-81.59h5.44c21.37,41.19,40.02,71.88,71.1,71.88,25.64,0,46.23-20.98,46.23-47.79,0-61-113.84-49.73-113.84-135.59,0-47.79,36.91-76.93,88.19-76.93,19.04,0,41.57,3.11,65.66,8.55Z"/>
  <path class="cls-1" d="M2360.76,332.56v-5.44l29.53-19.43V86.63l-29.53-18.65v-5.05h113.45v5.05l-29.53,20.2v100.24h45.84l44.68-83.53c3.5-6.6,5.05-10.49,5.05-13.99,0-8.94-6.22-14.38-20.98-22.53v-5.44h92.46v5.44l-42.73,21.37-60.61,103.35,61.38,90.91c13.21,19.81,25.64,31.08,49.73,42.35v6.22h-100.62l8.54-19.81-76.92-113.84h-5.83v108.78l29.53,19.04v5.83h-113.45Z"/>
  <path class="cls-1" d="M2612.91,204.74c0-94.8,82.36-147.25,146.08-147.25,74.21,0,132.49,60.61,132.49,137.15,0,80.42-61.78,144.14-144.14,144.14s-134.43-55.95-134.43-134.04ZM2783.86,318.19c29.53-25.25,47.01-64.88,47.01-112.67,0-65.27-36.91-121.99-97.51-121.99-10.88,0-22.54,1.94-32.64,6.22-17.09,21.76-27.97,57.5-27.97,94.8,0,71.1,44.68,133.65,108,133.65h3.11Z"/>
</svg>